<mxfile host="app.diagrams.net" modified="2023-12-28T14:49:59.099Z" agent="Mozilla/5.0 (Macintosh; Intel Mac OS X 10_15_7) AppleWebKit/537.36 (KHTML, like Gecko) Chrome/120.0.0.0 Safari/537.36 Edg/120.0.0.0" etag="obXAw0bSJgYM5vQcw97K" version="22.1.15" type="github">
  <diagram name="Page-1" id="Xb3SWQci7cHASgEujswS">
    <mxGraphModel dx="1174" dy="785" grid="1" gridSize="10" guides="1" tooltips="1" connect="1" arrows="1" fold="1" page="1" pageScale="1" pageWidth="827" pageHeight="1169" math="0" shadow="0">
      <root>
        <mxCell id="0" />
        <mxCell id="1" parent="0" />
        <mxCell id="PSp0cXrO0mglVXlAgLhn-5" value="lifebook" style="rounded=0;whiteSpace=wrap;html=1;" parent="1" vertex="1">
          <mxGeometry x="160" y="480" width="70" height="40" as="geometry" />
        </mxCell>
        <mxCell id="PSp0cXrO0mglVXlAgLhn-6" value="elite" style="rounded=0;whiteSpace=wrap;html=1;" parent="1" vertex="1">
          <mxGeometry x="259" y="480" width="70" height="40" as="geometry" />
        </mxCell>
        <mxCell id="PSp0cXrO0mglVXlAgLhn-7" value="cocobox" style="rounded=0;whiteSpace=wrap;html=1;" parent="1" vertex="1">
          <mxGeometry x="360" y="480" width="70" height="40" as="geometry" />
        </mxCell>
        <mxCell id="PSp0cXrO0mglVXlAgLhn-8" value="pavillion" style="rounded=0;whiteSpace=wrap;html=1;" parent="1" vertex="1">
          <mxGeometry x="450" y="480" width="80" height="40" as="geometry" />
        </mxCell>
        <mxCell id="PSp0cXrO0mglVXlAgLhn-9" value="pve" style="rounded=0;whiteSpace=wrap;html=1;" parent="1" vertex="1">
          <mxGeometry x="160" y="430" width="370" height="40" as="geometry" />
        </mxCell>
        <mxCell id="PSp0cXrO0mglVXlAgLhn-10" value="k3sm-flb" style="rounded=0;whiteSpace=wrap;html=1;rotation=-91;fillColor=#dae8fc;strokeColor=#6c8ebf;" parent="1" vertex="1">
          <mxGeometry x="135" y="365.09" width="80" height="30" as="geometry" />
        </mxCell>
        <mxCell id="PSp0cXrO0mglVXlAgLhn-12" value="k3sm-hpp" style="rounded=0;whiteSpace=wrap;html=1;rotation=-91;fillColor=#dae8fc;strokeColor=#6c8ebf;" parent="1" vertex="1">
          <mxGeometry x="435" y="365.09" width="80" height="30" as="geometry" />
        </mxCell>
        <mxCell id="PSp0cXrO0mglVXlAgLhn-13" value="k3sa-hpp" style="rounded=0;whiteSpace=wrap;html=1;rotation=-91;fillColor=#dae8fc;strokeColor=#6c8ebf;" parent="1" vertex="1">
          <mxGeometry x="475" y="365.09" width="80" height="30" as="geometry" />
        </mxCell>
        <mxCell id="PSp0cXrO0mglVXlAgLhn-14" value="k3sa-fl-001" style="rounded=0;whiteSpace=wrap;html=1;rotation=-91;fillColor=#dae8fc;strokeColor=#6c8ebf;" parent="1" vertex="1">
          <mxGeometry x="173" y="365.09" width="80" height="30" as="geometry" />
        </mxCell>
        <mxCell id="PSp0cXrO0mglVXlAgLhn-15" value="k3sa-hpe2" style="rounded=0;whiteSpace=wrap;html=1;rotation=-91;fillColor=#dae8fc;strokeColor=#6c8ebf;" parent="1" vertex="1">
          <mxGeometry x="236" y="365.09" width="80" height="30" as="geometry" />
        </mxCell>
        <mxCell id="PSp0cXrO0mglVXlAgLhn-16" value="k3sa-ccb-001" style="rounded=0;whiteSpace=wrap;html=1;rotation=-91;fillColor=#d5e8d4;strokeColor=#82b366;" parent="1" vertex="1">
          <mxGeometry x="334" y="365.09" width="80" height="30" as="geometry" />
        </mxCell>
        <mxCell id="PSp0cXrO0mglVXlAgLhn-17" value="k3sa-ccb-002" style="rounded=0;whiteSpace=wrap;html=1;rotation=-91;fillColor=#d5e8d4;strokeColor=#82b366;" parent="1" vertex="1">
          <mxGeometry x="373" y="365.09" width="80" height="30" as="geometry" />
        </mxCell>
        <mxCell id="PSp0cXrO0mglVXlAgLhn-18" value="k3s" style="rounded=0;whiteSpace=wrap;html=1;" parent="1" vertex="1">
          <mxGeometry x="160" y="290" width="370" height="40" as="geometry" />
        </mxCell>
        <mxCell id="PSp0cXrO0mglVXlAgLhn-21" value="pifour" style="rounded=0;whiteSpace=wrap;html=1;" parent="1" vertex="1">
          <mxGeometry x="640" y="480" width="160" height="40" as="geometry" />
        </mxCell>
        <mxCell id="PSp0cXrO0mglVXlAgLhn-22" value="nginx proxy" style="rounded=0;whiteSpace=wrap;html=1;rotation=-91;fillColor=#ffe6cc;strokeColor=#d79b00;" parent="1" vertex="1">
          <mxGeometry x="615" y="414" width="80" height="30" as="geometry" />
        </mxCell>
        <mxCell id="PSp0cXrO0mglVXlAgLhn-23" value="maria db" style="rounded=0;whiteSpace=wrap;html=1;rotation=-91;fillColor=#ffe6cc;strokeColor=#d79b00;" parent="1" vertex="1">
          <mxGeometry x="655" y="414" width="80" height="30" as="geometry" />
        </mxCell>
        <mxCell id="PSp0cXrO0mglVXlAgLhn-30" style="edgeStyle=orthogonalEdgeStyle;rounded=0;orthogonalLoop=1;jettySize=auto;html=1;exitX=0.5;exitY=1;exitDx=0;exitDy=0;entryX=0.5;entryY=0;entryDx=0;entryDy=0;endArrow=none;endFill=0;" parent="1" source="PSp0cXrO0mglVXlAgLhn-25" target="PSp0cXrO0mglVXlAgLhn-22" edge="1">
          <mxGeometry relative="1" as="geometry" />
        </mxCell>
        <mxCell id="PSp0cXrO0mglVXlAgLhn-25" value="nginx ingress&lt;br&gt;controller" style="rounded=0;whiteSpace=wrap;html=1;rotation=-91;fillColor=#ffe6cc;strokeColor=#d79b00;" parent="1" vertex="1">
          <mxGeometry x="470" y="224" width="80" height="30" as="geometry" />
        </mxCell>
        <mxCell id="PSp0cXrO0mglVXlAgLhn-26" value="NFS" style="shape=cylinder3;whiteSpace=wrap;html=1;boundedLbl=1;backgroundOutline=1;size=15;" parent="1" vertex="1">
          <mxGeometry x="360" y="560" width="70" height="65" as="geometry" />
        </mxCell>
        <mxCell id="PSp0cXrO0mglVXlAgLhn-27" value="" style="endArrow=none;html=1;rounded=0;exitX=0.5;exitY=1;exitDx=0;exitDy=0;entryX=0.5;entryY=0;entryDx=0;entryDy=0;entryPerimeter=0;" parent="1" source="PSp0cXrO0mglVXlAgLhn-7" target="PSp0cXrO0mglVXlAgLhn-26" edge="1">
          <mxGeometry width="50" height="50" relative="1" as="geometry">
            <mxPoint x="600" y="500" as="sourcePoint" />
            <mxPoint x="650" y="450" as="targetPoint" />
          </mxGeometry>
        </mxCell>
        <mxCell id="PSp0cXrO0mglVXlAgLhn-28" value="metallb&lt;br&gt;load balancer" style="rounded=0;whiteSpace=wrap;html=1;rotation=-91;fillColor=#ffe6cc;strokeColor=#d79b00;" parent="1" vertex="1">
          <mxGeometry x="414" y="224" width="80" height="30" as="geometry" />
        </mxCell>
      </root>
    </mxGraphModel>
  </diagram>
</mxfile>
